<?xml version="1.0" encoding="UTF-8" standalone="no"?>
<!-- Created with Inkscape (http://www.inkscape.org/) -->

<svg
   xmlns:dc="http://purl.org/dc/elements/1.1/"
   xmlns:cc="http://creativecommons.org/ns#"
   xmlns:rdf="http://www.w3.org/1999/02/22-rdf-syntax-ns#"
   xmlns:svg="http://www.w3.org/2000/svg"
   xmlns="http://www.w3.org/2000/svg"
   version="1.1"
   width="1364.2415"
   height="694.54828"
   id="svg2">
  <defs
     id="defs4" />
  <metadata
     id="metadata7">
    <rdf:RDF>
      <cc:Work
         rdf:about="">
        <dc:format>image/svg+xml</dc:format>
        <dc:type
           rdf:resource="http://purl.org/dc/dcmitype/StillImage" />
        <dc:title></dc:title>
      </cc:Work>
    </rdf:RDF>
  </metadata>
  <g
     transform="translate(114.17135,-165.47049)"
     id="layer1">
    <path
       d="m 274.9375,0 c -1.77905,-0.03661375 -3.49752,0.250745 -4.96875,0.84375 -1.11965,0.45129 -2.54302,0.38298 -3.21875,-0.15625 -0.80348,-0.64117 -1.94342,-0.46211 -3.40625,0.5625 -1.47273,1.03154 -2.75514,1.25558 -3.875,0.65625 -1.03563,-0.55425 -4.11214,-0.38899 -8.09375,0.4375 -3.53341,0.73346 -6.77305,1.11216 -7.21875,0.84375 -0.44569,-0.26842 -2.02069,-0.03919 -3.5,0.5 -1.4793,0.53919 -4.7125,1.53371 -7.1875,2.21875 -6.39679,1.77053 -13.3314,4.20003 -14.53125,5.09375 -0.56348,0.41971 -3.1542,1.4937 -5.75,2.375 -5.92015,2.00994 -13.71546,6.68238 -20.375,12.21875 -2.82651,2.34981 -6.31401,4.70404 -7.75,5.25 -1.43598,0.54596 -2.59375,1.38618 -2.59375,1.875 0,0.48881 -1.8,2.13165 -4,3.65625 -2.2,1.5246 -4,3.18931 -4,3.6875 0,1.33181 -2.80474,3.93582 -9,8.375 -6.53267,4.68095 -20.02825,17.41517 -20.03125,18.90625 -9.8e-4,0.57657 -1.95354,2.28274 -4.375,3.8125 -2.42145,1.52975 -7.55549,6.70475 -11.40625,11.5 -3.85076,4.79527 -8.61695,10.46205 -10.59375,12.59375 -1.9768,2.1316 -3.59375,4.48225 -3.59375,5.21875 0,0.7365 -0.9018,1.81855 -2,2.40625 -1.09821,0.5878 -2.90743,2.82715 -4,4.96875 -1.09258,2.1416 -2.93425,4.1944 -4.09375,4.5625 -1.43411,0.4551 -1.95478,1.27015 -1.625,2.53125 0.26958,1.0309 -0.57533,3.28975 -1.90625,5.09375 -1.31635,1.7842 -2.375,3.87325 -2.375,4.65625 0,0.7831 -1.33103,2.9203 -2.9375,4.75 -1.92529,2.1928 -2.7542,4.01325 -2.40625,5.34375 0.29033,1.1102 -0.41489,4.03345 -1.59375,6.46875 -1.17887,2.4352 -2.0851,4.80875 -2,5.28125 0.08511,0.4726 0.04231,1.06875 -0.09375,1.34375 -0.13605,0.275 -0.37879,1.625 -0.53125,3 -0.59617,5.3765 -1.78393,10.56825 -2.6875,11.71875 -0.52103,0.6634 -0.66028,1.65605 -0.3125,2.21875 0.34779,0.5627 0.1074,2.0636 -0.5625,3.3125 -0.6699,1.2489 -1.38872,5.4 -1.5625,9.25 -0.44266,9.8063 -1.0851,18.38995 -1.75,22.71875 -0.3117,2.0293 -0.16685,3.9344 0.34375,4.25 0.57053,0.3526 0.56932,1.8274 0,3.8125 -0.50948,1.7765 -0.90625,3.32755 -0.90625,3.46875 0,0.1411 2.025,0.25 4.5,0.25 4.13333,0 4.5,0.2037 4.5,2.5 0,1.7633 0.54241,2.5 1.84375,2.5 2.68007,0 4.86402,-2.86 7.0625,-9.25 1.0648,-3.0949 2.61038,-7.1207 3.4375,-8.9375 0.82712,-1.8168 1.74415,-5.3375 2.03125,-7.8125 1.0548,-9.0932 1.91894,-12.56125 3.75,-15.15625 1.03012,-1.4599 1.875,-3.5674 1.875,-4.6875 0,-1.1201 0.45,-2.31635 1,-2.65625 0.55,-0.34 1,-1.32485 1,-2.21875 0,-1.4583 2.60297,-7.8996 5.0625,-12.5 0.5106,-0.955 0.9375,-2.4551 0.9375,-3.3125 0,-0.8575 1.125,-2.65625 2.5,-4.03125 1.375,-1.375 2.5,-2.9282 2.5,-3.4375 0,-1.6616 4.99866,-12.3437 6.53125,-13.9375 0.82173,-0.8546 3.09526,-3.7 5.03125,-6.3125 1.93598,-2.6125 3.94394,-4.75 4.46875,-4.75 0.5248,0 0.96875,-0.6688 0.96875,-1.5 0,-4.4256 22.41788,-29.00106 37.875,-41.5 2.3806,-1.925 5.79411,-4.85 7.59375,-6.5 10.31379,-9.4562 16.29602,-14.31365 20.71875,-16.875 2.73447,-1.58362 5.20099,-3.50205 5.5,-4.28125 0.29901,-0.77921 5.68106,-3.88718 11.9375,-6.90625 6.25643,-3.01908 11.375,-5.93815 11.375,-6.46875 0,-0.53059 1.06716,-0.96875 2.375,-0.96875 1.30783,0 4.01894,-0.6592 6.03125,-1.5 9.77705,-4.08511 33.85373,-5.13549 48.3125,-2.09375 12.01529,2.5277 17.74531,5.25968 23.75,11.3125 3.03822,3.06257 5.53125,6.12699 5.53125,6.8125 0,0.68551 0.60396,1.76235 1.375,2.40625 0.77103,0.63991 1.72238,2.38506 2.09375,3.875 0.37138,1.48994 1.28218,4.06875 2.03125,5.71875 0.74907,1.65 2.23325,7.04337 3.28125,12 1.49055,7.04966 1.69654,10.42482 1.03125,15.5 -0.46777,3.5684 -1.08096,8.7164 -1.375,11.4375 -0.29405,2.7212 -1.42232,6.9388 -2.5,9.375 -1.07767,2.4363 -1.9375,6.5748 -1.9375,9.1875 0,2.8029 -0.56648,5.204 -1.375,5.875 -0.75367,0.6255 -1.61428,2.91695 -1.90625,5.09375 -0.29196,2.1768 -1.21917,4.6567 -2.0625,5.5 -0.84333,0.8433 -1.86331,2.54695 -2.25,3.78125 -0.38669,1.2342 -1.53816,3.3134 -2.5625,4.625 -1.02434,1.3117 -1.84375,3.23605 -1.84375,4.28125 0,2.1291 -2.80119,6.9017 -4.75,8.125 -0.70071,0.4398 -1.25,1.47265 -1.25,2.28125 0,1.4851 -2.58493,5.6136 -8.0625,12.9375 -1.6454,2.2 -4.57945,6.327 -6.53125,9.1875 -1.95179,2.8606 -6.53133,8.2606 -10.15625,12 -18.02439,18.5937 -21.09947,21.63075 -25.5,25.03125 -2.6125,2.0189 -4.75,3.95265 -4.75,4.28125 0,0.3285 -8.20006,7.53535 -18.21875,16.03125 -10.01868,8.4959 -20.52179,17.60625 -23.34375,20.21875 -2.82196,2.6125 -5.47464,4.75 -5.875,4.75 -0.92283,0 -15.95837,11.19655 -16.40625,12.21875 -0.62473,1.4258 -3.28373,0.78525 -6.96875,-1.71875 -2.02349,-1.375 -4.89196,-2.5 -6.375,-2.5 -1.48304,0 -3.34723,-0.691 -4.15625,-1.5 -1.45313,-1.4531 -6.47055,-0.91945 -19.90625,2.09375 -2.3088,0.5178 -2.75,0.2899 -2.75,-1.4375 0,-1.1317 0.45,-2.31635 1,-2.65625 0.55,-0.34 1,-1.6997 1,-3 0,-1.3004 1.125,-3.70965 2.5,-5.34375 2.64859,-3.1476 3.34241,-7.15375 1.25,-7.21875 -0.6875,-0.0215 0.20407,-0.657 2,-1.4375 1.79594,-0.7804 3.53405,-2.23325 3.84375,-3.21875 0.30971,-0.9855 1.18689,-2.9777 1.96875,-4.4375 0.78186,-1.4599 1.4375,-3.28585 1.4375,-4.03125 0,-0.7453 0.9111,-1.9255 2.03125,-2.625 1.12015,-0.6996 1.91545,-1.79845 1.78125,-2.46875 -0.40145,-2.005 1.13256,-6.71875 2.1875,-6.71875 0.53952,0 1,-1.3546 1,-3 0,-1.9085 0.72405,-3.4532 2,-4.25 1.1,-0.687 2,-2.0323 2,-3 0,-0.9677 0.45,-1.75 1,-1.75 0.55,0 1,-0.7102 1,-1.5625 0,-2.3891 3.02232,-7.6761 5.5,-9.625 1.22527,-0.9638 2.47246,-3.31595 2.78125,-5.21875 0.30879,-1.9029 1.48372,-4.38995 2.625,-5.53125 1.14128,-1.1413 2.09375,-3.35215 2.09375,-4.90625 0,-1.7211 0.97727,-3.72575 2.5,-5.15625 1.375,-1.2918 2.5,-2.94645 2.5,-3.65625 0,-0.7097 0.92809,-1.79915 2.0625,-2.40625 1.34268,-0.7186 1.9443,-1.8923 1.75,-3.375 -0.16987,-1.2963 0.83864,-3.7767 2.34375,-5.75 1.45452,-1.907 3.37478,-4.9849 4.25,-6.875 0.87523,-1.89 2.6155,-5.2375 3.875,-7.4375 1.2595,-2.2 3.39698,-5.99345 4.75,-8.40625 1.35301,-2.4128 3.88404,-5.93735 5.625,-7.84375 3.33131,-3.6478 6.6691,-11.92805 5.1875,-12.84375 -0.47847,-0.2957 -0.84375,-1.18045 -0.84375,-1.96875 0,-1.8353 -4.00879,-6.4375 -5.59375,-6.4375 -0.66471,0 -1.1389,-0.75615 -1.0625,-1.65625 0.0867,-1.0213 -1.15978,-2.10295 -3.34375,-2.90625 -6.37004,-2.3429 -8.14265,-1.85595 -12.75,3.65625 -2.3375,2.7966 -4.25,5.6474 -4.25,6.3125 0,0.6652 -1.35,2.2176 -3,3.4375 -1.65,1.2199 -3,3.0688 -3,4.125 0,1.0562 -0.63302,2.27885 -1.375,2.71875 -0.74198,0.4398 -1.97948,2.03455 -2.75,3.53125 -0.77052,1.4967 -2.72481,5.3217 -4.34375,8.5 -1.61893,3.1783 -3.87855,7.13125 -5.03125,8.78125 -1.15269,1.65 -2.94394,5.025 -4,7.5 -1.05605,2.475 -2.95893,6.16715 -4.21875,8.21875 -1.25982,2.0516 -2.28125,4.19805 -2.28125,4.78125 0,1.0583 -3.38312,6.22805 -5.75,8.78125 -0.6875,0.7416 -1.25,2.09815 -1.25,3.03125 0,0.933 -1.125,3.3515 -2.5,5.375 -1.375,2.0235 -2.5,4.0485 -2.5,4.5 0,0.4515 -1.125,2.4765 -2.5,4.5 -1.375,2.0235 -2.5,4.29625 -2.5,5.03125 0,1.5196 -14.52598,30.6822 -16.03125,32.1875 -0.54076,0.5407 -0.96875,2.0043 -0.96875,3.25 0,1.2456 -0.7875,2.6706 -1.75,3.1875 -1.00367,0.5391 -2.77763,4.2051 -4.125,8.5625 -1.29209,4.1787 -2.75459,7.85005 -3.25,8.15625 -0.49541,0.3062 -0.875,1.4006 -0.875,2.4375 0,1.037 -1.60262,3.5944 -3.53125,5.6875 -2.19858,2.3861 -4.09131,5.92245 -5.09375,9.46875 -1.89619,6.708 -5.76468,10.79475 -12.625,13.34375 -2.6047,0.9677 -5.24986,2.3717 -5.875,3.125 -0.62515,0.7533 -1.75061,1.375 -2.5,1.375 -1.68419,0 -11.35782,5.6773 -13.40625,7.875 -2.22468,2.3867 -8.02339,6.57955 -11.8125,8.53125 -1.83011,0.9427 -5.3378,3.26725 -7.8125,5.15625 -2.4747,1.8889 -5.59327,3.70175 -6.90625,4.03125 -1.31298,0.3296 -2.65606,1.4788 -3,2.5625 -0.34393,1.0836 -2.942975,3.45155 -5.78125,5.28125 -2.838274,1.8297 -9.43125,7.4668 -14.65625,12.5 -5.225001,5.0332 -10.7005,9.779 -12.15625,10.5625 -3.0448,1.6389 -17.14637,20.42965 -17.375,23.15625 -0.08392,1.0008 -0.44922,2.73425 -0.8125,3.84375 -0.94428,2.8838 3.52934,7.5 7.28125,7.5 4.3071,0 6.0625,0.9621 6.0625,3.375 0,1.1938 0.675066,3.1526 1.53125,4.375 1.89192,2.701 4.968197,2.8369 16.59375,0.6875 10.530755,-1.947 16.688305,-3.88035 24.625,-7.71875 3.44834,-1.6677 6.52628,-2.7549 6.84375,-2.4375 0.31746,0.3175 -0.67061,2.9491 -2.1875,5.875 -4.08388,7.8773 -4.4365,8.681 -4.4375,10.0625 -6.7e-4,0.695 -1.11014,2.5453 -2.46875,4.125 -1.35862,1.5798 -2.72424,3.8298 -3.0625,5 -1.30205,4.5045 -13.587004,28.45335 -15.46875,30.15625 -1.089381,0.9859 -1.96875,2.54425 -1.96875,3.46875 0,0.9245 -1.539147,3.66595 -3.40625,6.09375 -1.867108,2.4277 -4.65111,6.9125 -6.1875,9.9375 -1.5364,3.025 -3.82225,7.05355 -5.09375,8.96875 -1.2715,1.9152 -2.3125,3.7659 -2.3125,4.125 0,0.359 3.60369,1.19635 8.03125,1.84375 4.427566,0.6474 9.898022,1.8282 12.15625,2.625 2.258228,0.7967 4.17926,1.3309 4.25,1.1875 0.07074,-0.1433 3.825291,-4.38395 8.34375,-9.40625 4.67198,-5.193 8.21875,-10.0163 8.21875,-11.1875 0,-1.1327 0.45,-2.31635 1,-2.65625 0.55,-0.34 1,-1.4373 1,-2.4375 0,-1.0002 0.6617,-2.39805 1.5,-3.09375 0.83829,-0.6957 1.30702,-1.50555 1.03125,-1.78125 -0.27578,-0.2758 0.8708,-2.0733 2.5625,-4 1.6917,-1.9268 3.90599,-5.4165 4.90625,-7.75 1.00026,-2.3336 2.31073,-4.53815 2.90625,-4.90625 0.59552,-0.368 1.09375,-1.5673 1.09375,-2.6875 0,-1.1201 0.93678,-3.3752 2.09375,-5 1.1801,-1.6573 1.87984,-3.81225 1.59375,-4.90625 -0.30499,-1.1663 0.0016,-1.9375 0.75,-1.9375 2.10497,0 4.73315,-3.72415 4.40625,-6.21875 -0.16992,-1.2967 0.68149,-3.74875 1.90625,-5.46875 1.22476,-1.72 2.25,-3.379 2.25,-3.6875 0,-0.3085 1.35,-2.7107 3,-5.3125 1.65,-2.6018 3,-5.93125 3,-7.40625 0,-1.4749 0.68122,-3.26325 1.53125,-3.96875 0.85003,-0.7055 1.30699,-1.91875 1,-2.71875 -0.32053,-0.8353 0.93276,-3.1214 2.96875,-5.375 1.95003,-2.1584 3.83056,-5.27785 4.15625,-6.90625 0.32568,-1.6284 1.16914,-2.9375 1.90625,-2.9375 0.73712,0 2.92061,-1.40525 4.84375,-3.09375 1.92313,-1.6885 5.06306,-3.50505 6.96875,-4.03125 1.90568,-0.5261 5.63728,-2.38345 8.3125,-4.15625 7.58545,-5.0266 8.65816,-5.6598 11.03125,-6.6875 1.22214,-0.5292 2.49323,-2.1035 2.84375,-3.5 0.51025,-2.033 1.7224,-2.8724 6.03125,-4.125 2.96001,-0.8605 5.9549,-2.3737 6.65625,-3.375 0.70134,-1.0013 2.83401,-2.56335 4.75,-3.46875 7.40768,-3.5007 23.6586,-14.40855 28.8125,-19.34375 3.1933,-3.0578 3.49321,-3.1564 4.75,-1.5 0.73988,0.9751 1.38875,2.76375 1.40625,3.96875 0.0175,1.2051 0.48125,2.4725 1.03125,2.8125 0.55,0.3399 1,1.9149 1,3.5 0,1.585 0.4041,3.1271 0.90625,3.4375 0.50214,0.3103 1.22174,2.4779 1.59375,4.8125 0.37201,2.3346 1.49955,6.95 2.53125,10.25 1.0317,3.3 3.49728,11.4 5.46875,18 1.97148,6.6 3.85251,12.675 4.1875,13.5 0.33498,0.825 0.54129,1.8506 0.4375,2.3125 -0.10378,0.4619 1.17728,3.75425 2.84375,7.28125 1.66646,3.5271 3.03125,7.2598 3.03125,8.3125 0,1.0527 0.3375,2.0667 0.75,2.25 0.85538,0.3802 7.2717,12.91245 7.25,14.15625 -0.008,0.4492 1.125,2.29105 2.5,4.09375 1.375,1.8027 2.5,3.9607 2.5,4.8125 0,0.8517 0.675,1.8084 1.5,2.125 0.82499,0.3166 1.5,1.2251 1.5,2 0,0.775 0.675,1.97155 1.5,2.65625 0.825,0.6847 1.5,1.82305 1.5,2.53125 0,0.7082 2.475,3.8517 5.5,7 3.025,3.1483 5.5,6.2344 5.5,6.875 0,0.6407 1.56803,1.7388 3.5,2.4375 1.93197,0.6987 4.74447,2.83185 6.25,4.71875 1.50553,1.8869 3.51741,3.4375 4.46875,3.4375 0.95135,0 4.10135,1.77115 7,3.96875 2.89866,2.1977 6.06875,4 7.03125,4 0.9625,0.002 1.75,0.50915 1.75,1.09375 0,0.5846 0.7875,0.96425 1.75,0.84375 0.9625,-0.1206 3.01419,0.3015 4.5625,0.9375 3.61763,1.4818 10.73719,1.45765 14.34375,-0.0312 1.54831,-0.6392 4.90937,-1.2185 7.46875,-1.3125 l 4.65625,-0.1875 -5.65625,6.71875 c -3.10938,3.6976 -7.425,9.0434 -9.625,11.875 -2.2,2.8316 -5.99875,7.40595 -8.4375,10.15625 -2.43875,2.7503 -5.19942,6.22725 -6.125,7.71875 -0.92558,1.4915 -2.86433,3.7916 -4.3125,5.125 -2.80031,2.5783 -3.43964,5.57315 -1.375,6.40625 0.6875,0.2774 0.0348,0.55075 -1.4375,0.59375 -1.97164,0.0582 -3.64539,1.314 -6.3125,4.8125 -14.49315,19.0109 -17.45003,22.943 -20.8125,27.5625 -2.08375,2.8628 -5.00875,6.9875 -6.5,9.1875 -1.49124,2.2 -3.7,4.84135 -4.9375,5.84375 -1.2375,1.0025 -2.25,2.3803 -2.25,3.0625 0,0.6821 -1.41965,2.54085 -3.125,4.15625 -1.70535,1.6154 -3.48118,3.8375 -3.96875,4.9375 -0.48757,1.1 -2.9428,4.7 -5.4375,8 -2.49471,3.3 -4.79848,6.7875 -5.125,7.75 -0.32653,0.9625 -0.93109,1.75 -1.34375,1.75 -0.41266,0 -3.05776,3.4875 -5.875,7.75 -2.81723,4.2625 -6.80655,10.29865 -8.875,13.40625 -8.51719,12.796 -13.2003,20.39275 -18.96875,30.84375 -1.66966,3.025 -4.20329,7.5923 -5.625,10.125 -5.70043,10.1554 -8.4387,22.463 -6.4375,28.875 1.27444,4.0835 3.26234,5.11265 5.53125,2.84375 0.90183,-0.9018 1.61119,-0.7851 3.03125,0.5 1.01881,0.922 2.62604,1.65625 3.5625,1.65625 0.93645,0 1.96467,0.675 2.28125,1.5 0.31659,0.825 1.42759,1.5 2.46875,1.5 1.42112,0 1.90625,-0.7032 1.90625,-2.875 0,-1.6491 0.64497,-3.14065 1.5,-3.46875 0.825,-0.3165 1.5,-1.21165 1.5,-1.96875 0,-0.757 0.9,-2.192 2,-3.1875 1.1,-0.9955 2,-2.61015 2,-3.59375 0,-0.9836 0.78681,-2.37505 1.75,-3.09375 0.96319,-0.7187 2.3588,-3.1125 3.125,-5.3125 0.76621,-2.2 2.3419,-4.9189 3.5,-6.0625 4.0153,-3.9651 5.625,-6.45925 5.625,-8.78125 0,-1.2834 0.9,-3.16075 2,-4.15625 1.1,-0.9955 2,-2.3056 2,-2.9375 0,-0.6318 1.575,-2.6968 3.5,-4.5625 1.925,-1.8658 3.5,-4.14745 3.5,-5.09375 0,-0.9462 0.4513,-1.8691 1.03125,-2.0625 0.89056,-0.2968 1.50894,-1.93855 1.875,-4.96875 0.0421,-0.3484 0.92041,-0.859 1.9375,-1.125 1.09453,-0.2862 2.79139,-2.73835 4.15625,-6.03125 1.5982,-3.856 2.98898,-5.738 4.53125,-6.125 1.22389,-0.3072 2.48774,-1.344 2.8125,-2.3125 0.56986,-1.6995 0.93124,-2.45215 3.5,-6.78125 0.6527,-1.1 1.46284,-2.77445 1.78125,-3.71875 0.31842,-0.9443 1.42813,-1.9822 2.46875,-2.3125 1.15349,-0.3661 1.90625,-1.52685 1.90625,-2.96875 0,-1.487 0.74264,-2.601 2,-3 1.1,-0.3492 2,-1.1878 2,-1.875 0,-0.6872 3.375,-4.81145 7.5,-9.15625 4.125,-4.3447 7.5,-8.63455 7.5,-9.53125 0,-0.8966 1.575,-3.23665 3.5,-5.21875 3.72625,-3.8368 4.2613,-5.2723 2.25,-6 -0.73074,-0.2644 -0.16842,-0.9617 1.375,-1.6875 1.45207,-0.6828 3.24028,-2.35755 3.96875,-3.71875 0.72848,-1.3612 2.48743,-3.0788 3.90625,-3.8125 2.91323,-1.5065 13,-15.88035 13,-18.53125 0,-0.9925 1.49039,-2.4214 3.5,-3.375 3.56096,-1.6898 4.63886,-3.59375 2.0625,-3.59375 -1.867,0 5.52572,-7.44125 9.09375,-9.15625 1.50876,-0.7253 4.06281,-3.28195 5.65625,-5.65625 1.59344,-2.3744 4.02248,-4.7239 5.40625,-5.25 2.1931,-0.8338 2.45413,-1.41515 1.96875,-4.40625 -0.4537,-2.7958 -0.19794,-3.53205 1.375,-4.03125 2.48849,-0.7898 7.27911,-7.0758 6.4375,-8.4375 -0.36499,-0.5906 0.21925,-1.0625 1.34375,-1.0625 1.09254,0 2.9676,-1.2375 4.15625,-2.75 1.18865,-1.5125 5.29236,-6.125 9.125,-10.25 3.83263,-4.125 7.61262,-8.1914 8.40625,-9.0625 0.79364,-0.8712 1.46875,-2.0549 1.46875,-2.625 0,-0.5702 1.81319,-2.77245 4.03125,-4.90625 2.49703,-2.402 3.86007,-4.53175 3.59375,-5.59375 -0.27868,-1.1114 0.3275,-1.9635 1.71875,-2.375 1.181,-0.3494 3.73125,-2.15435 5.65625,-4.03125 1.925,-1.8768 4.5125,-4.3824 5.75,-5.5625 1.2375,-1.18 2.25,-2.93035 2.25,-3.90625 0,-0.9758 0.9,-2.0884 2,-2.4375 1.1,-0.3492 2,-1.25015 2,-2.03125 0,-0.781 1.8,-2.57995 4,-3.96875 2.2,-1.3888 4,-2.93555 4,-3.46875 0,-0.5332 4.725,-5.718 10.5,-11.5 5.775,-5.782 10.5,-11.1721 10.5,-12 0,-0.8279 0.40691,-1.53125 0.90625,-1.53125 0.49933,0 4.19232,-3.1773 8.21875,-7.0625 4.02643,-3.8852 7.46282,-6.5803 7.65625,-6 0.19343,0.5803 -0.36213,1.7996 -1.25,2.6875 -0.91881,0.9188 -1.36357,2.3905 -1.03125,3.4375 0.32113,1.0118 -0.31911,3.7477 -1.4375,6.0625 -1.1184,2.3148 -2.34109,5.716 -2.6875,7.5625 -0.34641,1.8466 -1.04846,3.6198 -1.5625,3.9375 -0.51404,0.3177 -0.63566,2.5116 -0.28125,4.875 0.38569,2.572 0.18441,5.12745 -0.5,6.40625 -1.64041,3.0652 1.58924,12.7573 4.96875,14.9375 1.375,0.887 2.82254,2.16525 3.25,2.84375 0.42745,0.6786 2.45245,1.54795 4.5,1.90625 2.04754,0.3584 4.2,1.14745 4.75,1.78125 1.96119,2.26 6.66801,4.79245 8,4.28125 0.74503,-0.2859 1.52946,-3.5e-4 1.75,0.65625 0.31012,0.9235 0.94569,0.932 2.8125,0 1.3275,-0.6627 4.70082,-1.8403 7.46875,-2.625 6.42112,-1.8202 12.27899,-4.9715 14.09375,-7.5625 0.85964,-1.2273 2.04687,-1.8033 3,-1.4375 1.6283,0.6248 3.31695,-1.15795 3.34375,-3.53125 0.0107,-0.9513 -0.71803,-1.15815 -2.46875,-0.71875 -1.44165,0.3618 -2.5,0.18145 -2.5,-0.40625 0,-0.5605 0.52066,-1.03125 1.15625,-1.03125 0.63558,0 2.60353,-1.125 4.40625,-2.5 3.96072,-3.021 4.39263,-3.077 3.71875,-0.5 -0.86338,3.3015 3.29036,2.529 5.375,-1 0.97468,-1.65 2.56747,-3 3.5625,-3 1.00962,0 2.25081,-1.1049 2.78125,-2.5 0.52277,-1.375 1.43517,-2.5 2.03125,-2.5 0.59607,0 0.79484,0.44115 0.46875,0.96875 -0.32609,0.5276 -0.11848,1.7651 0.4375,2.75 1.17581,2.0828 3.4335,10.0845 3.5,12.375 0.0251,0.8638 1.47355,3.0013 3.21875,4.75 2.62485,2.6301 3.93903,3.15625 7.65625,3.15625 2.47148,0 4.67173,-0.48395 4.875,-1.09375 0.20326,-0.6097 1.26368,0.75675 2.34375,3.03125 1.80562,3.8027 2.25061,4.09805 5.46875,3.84375 2.4865,-0.1965 3.75199,-0.90695 4.4375,-2.46875 0.6489,-1.4785 2.21201,-2.389 4.71875,-2.8125 4.24669,-0.7175 6.72555,-2.9932 5.09375,-4.625 -1.46019,-1.4602 1.33989,-6.7536 4.125,-7.8125 1.20201,-0.457 2.79901,-1.5552 3.53125,-2.4375 1.89721,-2.286 3.76701,-2.0084 5.65625,0.875 2.47674,3.78 10.4375,3.33065 10.4375,-0.59375 0,-1.0412 0.45,-1.90625 1,-1.90625 0.55,0 1,0.9 1,2 0,1.1 0.45,2 1,2 0.55,0 1,0.9 1,2 0,1.4486 0.65471,2 2.40625,2 3.39546,0 5.59375,-0.9659 5.59375,-2.5 0,-0.7195 2.025,-3.10265 4.5,-5.28125 4.52343,-3.9817 5.83655,-7.21875 2.9375,-7.21875 -0.85741,0 -1.27867,-0.448 -0.9375,-1 0.34116,-0.552 1.62085,-0.72095 2.875,-0.40625 1.75174,0.4397 2.9289,-0.2006 5,-2.75 1.48279,-1.8252 4.48114,-5.5103 6.6875,-8.1875 2.20637,-2.6772 3.81796,-5.08835 3.5625,-5.34375 -0.25546,-0.2555 1.12135,-1.95025 3.0625,-3.78125 1.94115,-1.8309 3.25194,-3.78435 2.90625,-4.34375 -0.34569,-0.5593 0.26881,-1.30515 1.375,-1.65625 1.10619,-0.3511 3.11029,-2.5569 4.46875,-4.875 1.35846,-2.318 3.83166,-5.5266 5.5,-7.125 1.66834,-1.5984 3.0625,-3.3405 3.0625,-3.875 0,-0.5345 2.25,-3.16515 5,-5.84375 2.75,-2.6787 5,-5.5035 5,-6.3125 0,-0.8089 0.68899,-1.5 1.53125,-1.5 0.84227,0 1.78836,-0.7875 2.125,-1.75 2.4339,-5.83932 4.52903,-12.39378 9.34375,-18.125 0,-1.0872 4.34578,-2.43235 8.625,-2.65625 2.72299,-0.1425 3.25714,0.2231 3.75,2.6875 0.314,1.57 0.12255,3.9841 -0.40625,5.375 -0.5288,1.3908 -0.8842,3.5286 -0.8125,4.75 0.0717,1.2214 -0.38235,4.91875 -1,8.21875 -2.47306,13.213 -0.76204,48.05005 2.625,53.46875 0.84786,1.3565 1.63223,3.6904 1.75,5.1875 0.11778,1.4971 1.17713,3.9544 2.34375,5.4375 1.16661,1.4831 2.125,3.55065 2.125,4.59375 0,1.0431 0.6042,2.1417 1.375,2.4375 0.7708,0.2958 1.6305,1.383 1.90625,2.4375 0.30859,1.18 2.84113,2.9351 6.59375,4.5625 3.35344,1.4544 6.125,3.05315 6.125,3.53125 0,0.4781 0.86996,0.84375 1.9375,0.84375 1.06754,0 2.22258,0.45 2.5625,1 0.33992,0.55 1.91492,1 3.5,1 1.58508,0 3.16008,0.45 3.5,1 0.33992,0.55 1.68334,1 3,1 1.31667,0 3.42412,0.4576 4.6875,1 1.26338,0.5423 6.1375,1.36575 10.8125,1.84375 7.36442,0.753 8.96759,0.6368 12,-0.9375 1.925,-0.9993 4.7375,-2.0685 6.25,-2.375 1.70669,-0.3458 2.76155,-1.20695 2.78125,-2.28125 0.0355,-1.9321 2.96875,-6.3167 2.96875,-4.4375 0,0.6552 0.675,1.1875 1.5,1.1875 1.79298,0 2.00519,-3.63365 0.25,-4.21875 -0.67434,-0.2247 0.78816,-1.6063 3.25,-3.0625 8.59035,-5.081 20.96985,-19.71405 19.625,-23.21875 -0.32049,-0.8352 0.29592,-1.4933 1.65625,-1.6875 1.70811,-0.2439 2.1774,-0.89445 2.03125,-3.03125 -0.14871,-2.1741 0.32167,-2.90655 2.3125,-3.40625 2.04021,-0.512 2.41448,-1.06835 1.9375,-2.96875 -0.44549,-1.775 0.003,-2.72155 1.90625,-3.96875 1.38126,-0.9051 2.53125,-2.36285 2.53125,-3.21875 0,-0.8559 0.7241,-2.34825 1.625,-3.34375 1.33538,-1.4756 1.40257,-2.10555 0.375,-3.34375 -0.86394,-1.041 -0.89435,-1.53125 -0.125,-1.53125 0.66363,0 1.125,-1.8394 1.125,-4.5 l 0,-4.5 -4.625,0 c -4.21624,0 -4.99192,0.4042 -9,4.75 -2.4095,2.6125 -4.369,5.13115 -4.375,5.59375 -0.006,0.4626 -3.4875,4.4706 -7.75,8.875 -12.79364,13.2197 -15.54539,15.78125 -16.6875,15.78125 -0.59977,0 -2.34892,1.35 -3.90625,3 -1.55734,1.65 -3.78992,3 -4.9375,3 -1.14757,0 -2.82299,0.69235 -3.75,1.53125 -2.63252,2.3824 -13.00461,5.69225 -18.125,5.78125 -2.59889,0.0452 -5.67534,-0.5793 -7,-1.4375 -1.29984,-0.8421 -3.6243,-1.84135 -5.15625,-2.21875 -1.66569,-0.4103 -3.15669,-1.67785 -3.71875,-3.15625 -0.51693,-1.3596 -1.38005,-2.5 -1.9375,-2.5 -0.55745,0 -1.02075,-1.0125 -1.03125,-2.25 -0.0105,-1.2375 -0.46613,-6.975 -1,-12.75 -1.23649,-13.3755 -1.19994,-12.4599 -0.53125,-19.5 0.63052,-6.6384 1.7456,-27.7463 1.8125,-34 0.0236,-2.2 -0.46945,-8.48625 -1.125,-13.96875 -0.94365,-7.8918 -1.73758,-10.7559 -3.8125,-13.75 -1.44146,-2.08 -3.0248,-3.78125 -3.5,-3.78125 -0.4752,0 -0.84375,-1.0334 -0.84375,-2.3125 0,-3.7135 -3.78481,-6.2949 -9.5,-6.5 -2.75,-0.0987 -5.9,0.21905 -7,0.71875 -1.1,0.4996 -3.48261,1.4481 -5.28125,2.125 -1.79863,0.6768 -4.35914,2.5463 -5.6875,4.125 -1.32835,1.5786 -2.81224,2.84375 -3.3125,2.84375 -0.50027,0 -1.72326,0.9 -2.71875,2 -0.99549,1.1 -2.40074,2 -3.09375,2 -0.69301,0 -2.98451,1.95665 -5.09375,4.34375 -2.10925,2.3872 -4.825,4.87405 -6.0625,5.53125 -1.2375,0.6572 -2.25,1.69225 -2.25,2.28125 0,0.589 -1.125,1.94965 -2.5,3.03125 -1.375,1.0816 -2.5,2.59565 -2.5,3.34375 0,0.748 -0.85247,1.6129 -1.875,1.9375 -1.02253,0.3245 -3.61003,3.0325 -5.75,6 -2.13997,2.9676 -4.775,5.8793 -5.875,6.5 -1.1,0.6208 -3.53115,3.4471 -5.375,6.25 -4.02518,6.1189 -5.1023,5.29405 -5.125,-3.90625 -0.0139,-5.6357 -0.30372,-6.55705 -3.25,-9.65625 -1.7875,-1.8803 -4.07433,-4.59325 -5.0625,-6.03125 -3.93685,-5.7291 -13.47853,-1.908 -15.15625,6.0625 -0.36658,1.7416 -1.35818,3.4318 -2.1875,3.75 -0.94749,0.3636 -1.2825,1.2521 -0.90625,2.4375 0.3675,1.1579 0.0653,2.1007 -0.8125,2.4375 -0.78657,0.3018 -1.75219,2.3558 -2.125,4.5625 -0.37281,2.2066 -1.31175,4.56975 -2.09375,5.21875 -0.78201,0.649 -1.40625,1.6463 -1.40625,2.25 0,2.435 -4.63824,10.64155 -6.625,11.71875 -1.16783,0.6332 -2.74176,2.95345 -3.46875,5.15625 -0.72698,2.2028 -1.90732,4.2246 -2.625,4.5 -0.71768,0.2754 -1.28125,1.14165 -1.28125,1.90625 0,0.7645 -1.52938,3.0609 -3.375,5.125 -1.84563,2.0641 -3.94255,4.875 -4.65625,6.25 -1.94084,3.7392 -9.97966,14 -10.96875,14 -0.99808,0 -2.38655,-5.20525 -2.46875,-9.28125 -0.0371,-1.8407 0.73899,-3.31165 2.21875,-4.28125 1.2375,-0.8108 2.25,-2.02875 2.25,-2.71875 0,-0.6901 0.91231,-2.0777 2.0625,-3.0625 1.4582,-1.2486 1.93683,-2.47775 1.53125,-4.09375 -0.44145,-1.7588 -0.1145,-2.44605 1.40625,-2.84375 1.12109,-0.2932 2.70178,-2.2265 3.59375,-4.375 0.87684,-2.1121 2.23419,-4.1852 3,-4.625 0.7658,-0.4399 1.40625,-1.3728 1.40625,-2.0625 0,-0.6897 1.09098,-3.467 2.4375,-6.1875 1.48762,-3.0056 2.76528,-7.91155 3.25,-12.46875 1.137,-10.6898 0.95094,-22.256 -0.34375,-22.6875 -0.5948,-0.1983 -0.87095,-1.43215 -0.625,-2.71875 0.24595,-1.2866 -0.18985,-2.92865 -0.96875,-3.65625 -0.7789,-0.7276 -1.22581,-2.28755 -1,-3.46875 1.13042,-5.9134 -15.66718,-24.46875 -22.15625,-24.46875 -1.36481,0 -2.75383,-0.45 -3.09375,-1 -0.33992,-0.55 -2.87141,-1 -5.625,-1 -7.31163,0 -17.75257,5.18945 -25.875,12.84375 -6.51092,6.1357 -9.57928,7.46275 -10.65625,4.65625 -0.31659,-0.825 -1.28009,-1.5 -2.15625,-1.5 -1.23901,0 -1.33958,-0.2542 -0.40625,-1.1875 1.63166,-1.6317 1.52311,-4.30975 -0.25,-5.78125 -1.15951,-0.9623 -2.12742,-0.85535 -4.65625,0.40625 -1.75487,0.8754 -4.12825,1.5619 -5.28125,1.5625 -1.23326,5e-4 -5.38745,3.10375 -10.09375,7.53125 -4.4,4.1394 -9.91545,9.1511 -12.25,11.125 -2.69834,2.2815 -4.66651,4.99975 -5.40625,7.46875 -0.64001,2.1362 -1.79331,3.875 -2.53125,3.875 -0.73794,0 -1.3125,0.4641 -1.3125,1 0,0.5359 -1.28672,1.6324 -2.84375,2.4375 -1.55702,0.8052 -8.92399,7.50245 -16.375,14.90625 -7.45102,7.4038 -14.51251,13.9962 -15.6875,14.625 -1.17499,0.6289 -3.21919,2.80485 -4.53125,4.84375 -1.31207,2.0388 -8.28616,9.7625 -15.5,17.1875 -12.21758,12.5752 -13.06312,13.2602 -12.46875,10 0.35095,-1.925 1.24012,-4.4517 1.96875,-5.625 0.72864,-1.1734 1.2544,-2.9734 1.1875,-4 -0.13829,-2.1211 4.00069,-14.3684 5.34375,-15.8125 0.48595,-0.5225 0.9203,-1.6475 0.9375,-2.5 0.0172,-0.8525 1.11598,-3.8125 2.46875,-6.5625 1.35277,-2.75 2.46175,-5.675 2.46875,-6.5 0.007,-0.825 0.84462,-2.85 1.84375,-4.5 0.99913,-1.65 2.60945,-5.475 3.59375,-8.5 2.12253,-6.5231 4.51469,-11.9255 6.1875,-14 0.66525,-0.825 2.67738,-4.2 4.46875,-7.5 1.79137,-3.3 4.25055,-7.35 5.46875,-9 4.34908,-5.8907 5.57152,-9.38205 5.3125,-15.28125 -0.22411,-5.1044 -0.62406,-6.08005 -3.9375,-9.28125 -2.0331,-1.9642 -3.86185,-4.42695 -4.0625,-5.46875 -0.20064,-1.0419 -1.59147,-2.5493 -3.0625,-3.375 -2.40287,-1.3487 -2.83514,-1.3355 -4.46875,0.125 -1.00009,0.8941 -2.85347,1.78105 -4.125,1.96875 -1.47861,0.2182 -3.10054,1.7566 -4.5,4.3125 -1.20347,2.1979 -2.67988,4.5448 -3.28125,5.1875 -0.60137,0.6428 -1.68337,2.6657 -2.375,4.5 -2.00953,5.3296 -3.37625,8.204 -4.65625,9.8125 -2.18436,2.7449 -6.09381,10.4588 -6.8125,13.4375 -0.39001,1.6164 -1.63497,4.2652 -2.78125,5.875 -1.14628,1.6098 -2.2682,4.4301 -2.46875,6.25 -0.20055,1.8199 -1.48377,5.2461 -2.84375,7.625 -1.35998,2.3788 -2.46175,5.325 -2.46875,6.5625 -0.007,1.2375 -0.37299,2.25 -0.8125,2.25 -0.88983,0 -3.39733,6.33265 -3.03125,7.65625 0.12825,0.4638 -0.69393,2.64375 -1.8125,4.84375 -1.11858,2.2 -2.60883,6.7 -3.34375,10 -0.73491,3.3 -1.71129,6.50275 -2.15625,7.09375 -0.44495,0.591 -1.50594,4.3297 -2.34375,8.3125 -0.8378,3.9828 -1.91975,8.0113 -2.40625,8.9375 -0.48651,0.9263 -1.65045,7.05625 -2.59375,13.65625 -1.59443,11.1558 -3.56938,18.5 -5,18.5 -0.33168,0 -1.08106,-1.35 -1.65625,-3 -1.47995,-4.2454 -5.6578,-4.0423 -12.34375,0.5625 -10.74839,7.4027 -26.26285,8.16555 -35.75,1.78125 -2.73132,-1.8381 -5.29648,-3.34375 -5.6875,-3.34375 -1.59499,0 -16.08852,-16.0411 -17.28125,-19.125 -0.39477,-1.0207 -1.16348,-1.875 -1.6875,-1.875 -0.52402,0 -1.23135,-1.35 -1.59375,-3 -0.3624,-1.65 -1.25986,-3 -1.96875,-3 -0.75634,0 -1.51555,-1.70935 -1.84375,-4.15625 -0.3076,-2.2933 -1.26019,-4.5785 -2.125,-5.0625 -0.86481,-0.4839 -1.5625,-1.53865 -1.5625,-2.34375 0,-1.4765 -0.30953,-2.1949 -3.34375,-8.25 -0.91806,-1.832 -1.65625,-4.1645 -1.65625,-5.1875 0,-1.0229 -0.45,-2.1601 -1,-2.5 -0.55,-0.34 -1,-1.4492 -1,-2.5 0,-1.0508 -0.91455,-3.54305 -2.03125,-5.53125 -1.11671,-1.9882 -2.29801,-5.71525 -2.59375,-8.28125 -0.29573,-2.5661 -1.57793,-7.8375 -2.875,-11.6875 -1.29707,-3.85 -2.95951,-9.1934 -3.6875,-11.875 -0.72798,-2.6816 -1.88507,-5.08285 -2.5625,-5.34375 -0.89845,-0.346 -0.94362,-0.99345 -0.1875,-2.40625 0.76422,-1.428 0.63452,-2.75705 -0.5,-5.03125 -0.84635,-1.6966 -1.28335,-3.4909 -0.96875,-4 0.52234,-0.8451 -1.47878,-5.42845 -5.15625,-11.84375 -2.41331,-4.21 -1.73553,-5.82455 3.8125,-9.40625 2.8875,-1.8641 6.13588,-4.252 7.25,-5.3125 1.11412,-1.0606 3.28601,-2.7498 4.8125,-3.75 1.5265,-1.0002 3.43899,-3.08795 4.25,-4.65625 0.83925,-1.623 2.28967,-2.875 3.375,-2.875 1.04882,0 2.18519,-0.87845 2.53125,-1.96875 0.34605,-1.0904 2.09024,-2.6576 3.84375,-3.5 1.7535,-0.8425 4.9875,-3.09055 7.1875,-4.96875 3.4023,-2.9046 3.81394,-3.66985 2.84375,-5.21875 -0.8176,-1.3053 -2.16276,-1.75515 -4.78125,-1.59375 -4.18931,0.2582 -3.99754,-1.05865 0.40625,-2.59375 2.36367,-0.824 3.03125,-0.7434 3.03125,0.3125 0,4.1338 9.22385,0.98475 10.90625,-3.71875 0.55231,-1.5441 1.72756,-2.75 2.6875,-2.75 0.94031,0 4.01169,-1.78525 6.8125,-3.96875 6.82274,-5.3189 26.59375,-24.5545 26.59375,-25.875 0,-0.5777 1.53407,-2.2357 3.4375,-3.6875 1.90344,-1.4518 3.70485,-3.36755 4,-4.28125 0.29515,-0.9137 1.90611,-2.4352 3.5625,-3.375 1.65638,-0.9398 3.38833,-2.7398 3.875,-4 0.48667,-1.2602 2.06665,-3.38545 3.5,-4.71875 1.43336,-1.3334 2.625,-2.98215 2.625,-3.65625 0,-0.6742 1.575,-2.79375 3.5,-4.71875 3.28852,-3.2886 4.72082,-7.71875 2.5,-7.71875 -0.55,0 -1,-0.45 -1,-1 0,-0.55 1.06528,-1 2.375,-1 1.56851,0 3.33872,-1.23245 5.1875,-3.65625 3.50436,-4.5944 15.4295,-27.89095 15.4375,-30.15625 0.003,-0.921 0.60922,-2.81115 1.34375,-4.21875 0.73453,-1.4075 1.62758,-4.4835 2,-6.8125 0.37242,-2.329 1.07644,-4.999 1.5625,-5.9375 0.48605,-0.9385 1.42745,-3.74375 2.09375,-6.21875 0.66629,-2.475 1.63736,-5.40835 2.15625,-6.53125 0.51889,-1.1228 1.08147,-4.104 1.25,-6.625 0.16853,-2.521 0.59514,-5.03975 0.9375,-5.59375 0.34236,-0.5539 0.6769,-4.3228 0.75,-8.375 0.0731,-4.0522 0.51191,-9.175 0.96875,-11.375 0.46143,-2.2223 0.42184,-4.35936 -0.0625,-4.84375 -0.47947,-0.47952 -0.62591,-1.48346 -0.34375,-2.21875 0.47274,-1.23195 -0.67092,-6.08043 -2.59375,-10.9375 -1.3705,-3.4619 -2.95047,-8.8191 -4.03125,-13.71875 -0.61036,-2.76703 -2.6931,-6.916 -5.03125,-10 -2.19787,-2.89898 -3.998,-5.66328 -4,-6.15625 -0.005,-1.0797 -8.84092,-10.71333 -11.125,-12.125 -3.28571,-2.03074 -7.4281,-5.0099 -9.3125,-6.71875 -1.06621,-0.96689 -2.32403,-1.78125 -2.78125,-1.78125 -0.45722,0 -2.51093,-1.01216 -4.5625,-2.28125 -2.05157,-1.26908 -5.96875,-3.11094 -8.71875,-4.09375 -2.75,-0.9828 -6.42313,-2.44564 -8.15625,-3.21875 -1.73312,-0.77312 -3.87062,-1.40625 -4.75,-1.40625 -0.87938,0 -2.52676,-0.90169 -3.65625,-2.03125 C 287.27668,2.71418 285.58918,1.88447 284.65625,2 283.72331,2.11554 281.67331,1.66722 280.125,1.03125 278.52754,0.37509 276.71655,0.03661375 274.9375,0 z m -127,301.21875 c 1.08442,-0.10575 0.6404,0.56675 -2.3125,2.09375 -1.65856,0.8577 -5.02422,3.2421 -7.46875,5.3125 -2.44453,2.0704 -5.95197,4.6633 -7.8125,5.75 -5.20329,3.039 -5.62359,3.0109 -2.6875,-0.125 1.92451,-2.0554 2.56941,-3.545 2.15625,-5.125 -0.49862,-1.9067 -0.18973,-2.25 2.15625,-2.25 1.50916,0 5.60917,-1.3942 9.125,-3.125 3.13856,-1.5451 5.75933,-2.4255 6.84375,-2.53125 z M 508.71875,322 c 1.41312,-0.15653 3.07802,1.75468 3.28125,4.4375 0.70586,9.3181 -5.59801,29.4848 -10.65625,34.0625 -1.03952,0.9407 -1.875,2.3753 -1.875,3.1875 0,1.1571 -0.93033,1.34735 -4.21875,0.90625 -7.66989,-1.0287 -12.74349,2.9791 -17.75,14.0625 -0.56537,1.2516 -1.698,2.5552 -2.53125,2.875 -0.83326,0.3197 -1.5,1.08835 -1.5,1.71875 0,0.6304 -1.35,2.41135 -3,3.96875 -1.65,1.5573 -3,3.4099 -3,4.125 0,0.7151 -1.2375,2.08045 -2.75,3.03125 -1.5125,0.9508 -4.1,3.069 -5.75,4.6875 -5.3551,5.2532 -11.66486,9.8125 -13.53125,9.8125 -1.00298,0 -2.53841,0.2919 -3.40625,0.625 -1.31499,0.5046 -1.4518,0.0464 -0.90625,-2.75 0.36003,-1.8456 1.02562,-3.5003 1.5,-3.6875 1.14052,-0.45 4.10088,-6.24285 3.5,-6.84375 -0.25783,-0.2578 0.62022,-1.60985 1.9375,-3.03125 1.31728,-1.4213 2.40625,-3.3602 2.40625,-4.3125 0,-0.9524 0.6338,-2.30175 1.4375,-2.96875 0.8037,-0.667 1.76486,-2.15595 2.125,-3.34375 0.36014,-1.1879 1.72008,-3.59295 3.03125,-5.34375 1.31116,-1.7508 2.40625,-3.59235 2.40625,-4.09375 0,-0.5015 0.9,-1.7545 2,-2.75 1.1,-0.9955 2,-2.35885 2,-3.03125 0,-0.6724 0.675,-1.78405 1.5,-2.46875 0.825,-0.6847 1.5,-1.87495 1.5,-2.65625 0,-2.3466 7.89806,-12.0879 11.5625,-14.25 1.87981,-1.1091 3.4375,-2.5119 3.4375,-3.125 0,-1.4821 12.74641,-13.6694 16.28125,-15.5625 1.65159,-0.8845 2.66844,-2.15705 2.5,-3.15625 -0.21771,-1.2916 0.47987,-1.70175 3,-1.71875 1.81818,-0.0124 3.70145,-0.70145 4.21875,-1.53125 0.35253,-0.56552 0.77896,-0.82282 1.25,-0.875 z m -422.1875,10.03125 c 0.711218,-0.029 0.4572,1.33775 -0.84375,4.0625 -1.41351,2.9606 -3.32329,4.41575 -10.71875,8.15625 -11.98039,6.0593 -14.59378,7.0171 -13.84375,5.0625 0.31532,-0.8217 1.8874,-2.1661 3.5,-3 1.6126,-0.8339 3.79178,-2.3855 4.84375,-3.4375 1.05197,-1.0519 4.28121,-3.108 7.1875,-4.5625 2.90628,-1.4544 6.29592,-3.58555 7.53125,-4.71875 1.133029,-1.03931 1.917019,-1.5451 2.34375,-1.5625 z m 234.65625,106.4375 c 0.16046,-0.0228 0.28125,0.0247 0.28125,0.15625 0,0.496 -1.0708,1.89785 -2.34375,3.09375 -2.36794,2.2245 -3.7234,2.74035 -3.625,1.40625 0.0719,-0.97519 4.56427,-4.49647 5.6875,-4.65625 z M 311.375,449 c 0.3474,0.0143 0.64635,0.1151 0.8125,0.28125 0.33229,0.3323 -0.25834,0.57425 -1.3125,0.53125 -1.16495,-0.048 -1.39148,-0.27455 -0.59375,-0.59375 0.36094,-0.1444 0.74635,-0.23306 1.09375,-0.21875 z"
       transform="translate(-114.16852,165.4736)"
       id="path3254"
       style="fill:#000000" />
    <g
       id="g3269">
      <path
         d="m 1222.1127,462.94235 c -7.7914,0.12551 -14.4569,2.04384 -22.5624,6.34375 -3.92,2.0795 -10.9738,5.0625 -11.9376,5.0625 -0.566,0 -1.7756,0.86415 -2.7187,1.90625 -0.9431,1.0421 -4.4887,3.5973 -7.875,5.6875 -11.8283,7.3009 -18.0549,13.67855 -29.3437,30.15625 -1.9783,2.8875 -4.0036,5.25 -4.5,5.25 -0.4966,0 -0.875,0.6345 -0.875,1.375 -1e-4,1.7945 -2.8689,7.4351 -4.1876,8.25 -0.5765,0.3563 -2.1246,2.96415 -3.4374,5.78125 -1.3129,2.8171 -2.7837,5.76875 -3.2813,6.59375 -0.4976,0.825 -1.4605,3.525 -2.125,6 -0.6645,2.475 -2.2604,6.75 -3.5313,9.5 -3.3929,7.342 -5.6325,18.6666 -4.9062,24.8125 1.3493,11.4183 4.4799,16.8122 11.4688,19.875 2.4749,1.0846 6.4164,2.84185 8.7812,3.90625 9.0749,4.0846 26.5864,4.25765 29.8125,0.28125 1.8748,-2.3107 4.6324,-0.52545 3.9063,2.53125 -0.8791,3.7001 -4.3841,12.7405 -7.1563,18.4375 -1.2959,2.6632 -2.3437,5.3916 -2.3437,6.0625 0,0.671 -0.9001,3.0983 -2,5.375 -1.1,2.2768 -2,5.0309 -2,6.125 0,1.0942 -0.3976,2.23615 -0.875,2.53125 -0.4776,0.2951 -1.1723,2.7308 -1.5313,5.4375 -0.4933,3.7189 -1.2743,5.3294 -3.1563,6.5625 -1.9023,1.2458 -2.3315,2.21215 -1.875,4.03125 0.4072,1.6227 -0.018,2.9869 -1.3437,4.3125 -1.0706,1.0705 -2.9761,4.15415 -4.2187,6.84375 -1.2426,2.6896 -2.6406,5.67 -3.125,6.625 -0.4846,0.955 -0.875,2.59345 -0.875,3.65625 -1e-4,1.0628 -1.7879,5.47405 -3.9376,9.78125 -2.1496,4.3071 -4.5971,10.0625 -5.4374,12.8125 -2.5065,8.2028 -4.0841,11.95285 -5.375,12.78125 -0.6711,0.4306 -1.4858,3.02015 -1.8438,5.71875 -0.3634,2.7397 -1.2612,5.11075 -2.0312,5.40625 -0.7586,0.2911 -1.375,1.4249 -1.375,2.5 -1e-4,1.075 -1.1387,3.31365 -2.5313,4.96875 -1.3927,1.6551 -3.9384,6.0629 -5.625,9.8125 -1.6867,3.7496 -3.8523,7.7125 -4.8437,8.8125 -2.0418,2.2654 -5.9831,8.8386 -9.2813,15.5 -1.2254,2.475 -2.5297,4.74605 -2.9063,5.03125 -0.3765,0.2852 -2.4014,2.99765 -4.5,6.03125 -2.0985,3.0335 -4.8548,6.6438 -6.125,8 -1.2701,1.3563 -4.7867,5.3625 -7.7812,8.9375 -7.7449,9.2462 -16.056,15.9485 -25.9062,20.875 -8.8153,4.4089 -13.1822,6.08915 -17.5,6.65625 -1.375,0.1807 -4.75,0.634 -7.5,1 -4.9912,0.6642 -10.1375,-0.18465 -16.2813,-2.65625 -3.1272,-1.258 -3.375,-1.1604 -6.6875,2.25 -3.5497,3.6546 -6.84122,11.1273 -5.5312,12.5625 0.4076,0.4465 1.262,2.4825 1.9062,4.5 1.3523,4.2346 4.7341,6.8125 8.9062,6.8125 1.602,0 3.5028,0.675 4.1876,1.5 0.6846,0.825 2.3567,1.5 3.7187,1.5 1.4464,0 3.5963,1.2341 5.1875,2.9375 1.4985,1.6041 4.0466,3.13615 5.6562,3.40625 4.7013,0.7891 17.5742,0.035 18.2813,-1.0625 0.3563,-0.553 2.0062,-1.23915 3.6563,-1.53125 11.4368,-2.0239 32.499,-13.0206 34,-17.75 0.2864,-0.9028 2.1935,-2.5826 4.25,-3.75 4.1586,-2.3608 14.392,-11.97345 18.25,-17.15625 1.375,-1.8472 3.1879,-4.0984 4.0312,-5 0.8432,-0.9015 2.3009,-3.28125 3.25,-5.28125 0.9491,-2 2.1115,-3.78705 2.5938,-3.96875 1.0566,-0.3982 8.125,-9.55595 8.125,-10.53125 0,-0.8962 4.8465,-8.18315 7.3437,-11.03125 1.5741,-1.7955 1.7126,-2.4898 0.7187,-3.6875 -1.6864,-2.0319 -0.5495,-5.04535 2.4376,-6.40625 1.3643,-0.6217 2.5,-1.59445 2.5,-2.15625 0,-0.5618 0.6749,-1.03125 1.5,-1.03125 0.9198,0 1.5,-0.92275 1.5,-2.40625 0,-2.4463 2.8685,-8.79225 4.25,-9.40625 0.4124,-0.1833 0.75,-1.20765 0.75,-2.28125 0,-1.7227 2.416,-6.53105 4,-7.90625 1.4666,-1.2734 5,-7.89995 5,-9.40625 0,-0.9261 0.8765,-3.3411 1.9687,-5.375 4.6323,-8.6266 7.2293,-15.89715 7.1563,-19.96875 -0.042,-2.3375 0.3645,-4.25 0.9062,-4.25 0.5418,0 1.5116,-1.2375 2.1562,-2.75 0.6446,-1.5125 1.8153,-3.5031 2.5938,-4.4375 0.8512,-1.0217 1.5051,-4.34345 1.625,-8.34375 0.1618,-5.3959 0.5939,-6.9749 2.2812,-8.3125 1.144,-0.9069 2.6917,-3.45625 3.4376,-5.65625 0.7458,-2.2 1.9032,-4.34145 2.5937,-4.78125 0.6905,-0.4399 1.2813,-1.46635 1.2813,-2.28125 0,-0.8149 0.6749,-1.7459 1.5,-2.0625 0.8249,-0.3166 1.5,-1.588 1.5,-2.8125 0,-1.2244 0.2691,-2.5192 0.625,-2.875 0.9776,-0.9776 4.2754,-10.9221 4.3124,-13 0.018,-1.0017 0.6792,-2.4291 1.4376,-3.1875 0.7584,-0.7585 1.6672,-3.385 2.0312,-5.8125 0.4097,-2.7317 1.5835,-5.26675 3.0625,-6.65625 1.3625,-1.2799 2.6683,-4.01035 3.0625,-6.34375 0.3803,-2.2509 1.4603,-5.8983 2.4062,-8.125 0.9461,-2.2266 1.9919,-5.69755 2.3126,-7.71875 0.3205,-2.0212 1.5149,-4.6087 2.6562,-5.75 1.1412,-1.1413 2.0818,-3.10625 2.0938,-4.34375 0.012,-1.2375 0.9245,-3.375 2,-4.75 1.0755,-1.375 1.9567,-3.3729 1.9687,-4.4375 0.012,-1.0645 0.8571,-2.8645 1.875,-4 1.018,-1.1354 2.4244,-4.17925 3.125,-6.78125 0.7006,-2.6021 1.8999,-5.2472 2.6563,-5.875 0.7564,-0.6278 1.375,-1.7825 1.375,-2.5625 0,-0.7799 0.8629,-2.6348 1.9374,-4.125 4.0109,-5.562 6.5263,-25.4122 3.5,-27.625 -1.5794,-1.1549 -1.0882,-4.59375 0.6563,-4.59375 0.4911,0 0.9063,-0.5503 0.9063,-1.25 0,-0.6997 1.2551,-2.8372 2.8124,-4.75 1.5575,-1.9128 4.3077,-6.875 6.0938,-11 1.7861,-4.125 4.2123,-9.4881 5.4062,-11.9375 1.1941,-2.4493 2.2426,-5.1493 2.3126,-6 0.07,-0.8506 0.9135,-3.48245 1.875,-5.84375 1.2583,-3.0904 1.5373,-5.4717 1.0312,-8.5 -0.3867,-2.3137 -0.8221,-5.34375 -0.9688,-6.71875 -0.1467,-1.375 -0.3202,-2.9717 -0.4062,-3.5625 -0.086,-0.5909 -3.2239,-4.23565 -6.9688,-8.09375 l -6.8124,-7 -6.9376,-0.5625 c -1.9457,-0.15735 -3.8269,-0.21646 -5.625,-0.1875 z m -6.8437,34.40625 c 0.5009,0 0.2577,1.2375 -0.5313,2.75 -0.789,1.5125 -1.4374,3.3125 -1.4374,4 0,0.6875 -0.4501,1.25 -1,1.25 -0.5501,0 -1.0365,0.7875 -1.0626,1.75 -0.026,0.9625 -0.8139,3.16985 -1.75,4.90625 -6.0839,11.2855 -8.7661,15.625 -9.9062,16.0625 -0.7144,0.2742 -2.2712,2.2442 -3.4688,4.375 -2.2871,4.0693 -12.5688,11.90625 -15.625,11.90625 -2.8645,0 -4.6693,7.6992 -3.0624,13.0625 1.2797,4.2713 1.276,4.25215 -2.1563,6.84375 -1.8891,1.4265 -4.3883,3.60625 -5.5625,4.84375 -1.1742,1.2375 -2.6011,2.25 -3.1562,2.25 -0.5552,0 -2.9683,1.104 -5.375,2.4375 -2.4068,1.3335 -6.0626,2.7473 -8.125,3.125 -3.2399,0.5933 -3.7671,0.4205 -3.75,-1.1875 0.026,-2.4387 5.7083,-18.4583 7,-19.75 0.5504,-0.5506 1,-1.8225 1,-2.8125 0,-0.99 0.4981,-1.8125 1.125,-1.8125 1.5367,0 3.8047,-3.0887 3.8437,-5.25 0.017,-0.9625 0.4641,-1.75 1,-1.75 0.5359,0 1.6121,-1.24565 2.4063,-2.78125 0.794,-1.5357 3.2861,-5.00195 5.5312,-7.71875 2.245,-2.7168 4.0938,-5.4532 4.0938,-6.0625 0,-0.6092 1.7999,-2.777 4,-4.8125 2.1999,-2.0355 3.99,-4.24095 4,-4.90625 0.021,-1.4738 4.3587,-5.71875 5.8437,-5.71875 0.5885,0 1.8599,-0.82965 2.8437,-1.84375 0.9841,-1.014 3.3876,-2.7015 5.3126,-3.75 1.925,-1.0484 3.7249,-2.14785 4,-2.46875 0.7634,-0.891 12.9326,-6.9375 13.9687,-6.9375 z"
         id="path3258"
         style="fill:#000000" />
      <path
         d="m 867.89398,249.3486 c -2.8396,0 -5.578,2.38205 -5.625,4.84375 -0.0175,0.9232 -0.6925,2.5574 -1.5,3.625 -0.8075,1.0676 -1.46875,2.689 -1.46875,3.625 0,0.936 -0.73355,1.9824 -1.59375,2.3125 -0.8602,0.33 -1.42265,1.37755 -1.28125,2.34375 0.1413,0.9663 -1.0446,4.225 -2.625,7.25 -1.5804,3.025 -4.3981,8.65 -6.25,12.5 -1.8518,3.85 -3.7886,7.795 -4.3125,8.75 -0.5239,0.955 -0.9375,2.67795 -0.9375,3.84375 0,1.1658 -1.12515,3.0056 -2.46875,4.0625 -1.6718,1.315 -2.6524,3.37915 -3.125,6.53125 -0.3799,2.5332 -1.45315,5.3594 -2.40625,6.3125 -0.95307,0.953 -2.05517,3.714 -2.4375,6.125 -0.38233,2.411 -1.44637,5.79885 -2.375,7.53125 -0.92864,1.7324 -2.52298,4.8824 -3.53125,7 -1.00827,2.1176 -2.24178,4.51875 -2.75,5.34375 -0.50822,0.825 -1.42325,2.625 -2.03125,4 -0.608,1.375 -1.64533,3.625 -2.3125,5 -0.66717,1.375 -1.84363,4.525 -2.59375,7 -0.75012,2.475 -1.96678,5.4151 -2.6875,6.5 -0.72072,1.0848 -1.28125,2.69115 -1.28125,3.59375 0,0.9026 -1.04562,2.71875 -2.3125,4.03125 -1.26688,1.3125 -2.94473,4.4 -3.71875,6.875 -0.77402,2.475 -2.57024,6.975 -4,10 -1.42976,3.025 -3.46442,7.41135 -4.53125,9.71875 -1.06684,2.3074 -2.725,4.40265 -3.6875,4.65625 -1.15523,0.3043 -1.75,1.44115 -1.75,3.34375 0,1.5852 -0.97268,4.66495 -2.15625,6.84375 -6.1793,11.3753 -9.84375,19.02415 -9.84375,20.53125 0,0.9272 -0.61855,2.1847 -1.375,2.8125 -0.75645,0.6278 -1.94588,3.1369 -2.625,5.5625 -0.67912,2.4256 -2.31057,5.42145 -3.625,6.65625 -1.31443,1.2349 -2.375,3.29735 -2.375,4.59375 0,1.2964 -0.675,2.621 -1.5,2.9375 -0.825,0.3166 -1.5,1.36285 -1.5,2.34375 0,0.9808 -1.575,4.98 -3.5,8.875 -1.925,3.8951 -3.5,7.5598 -3.5,8.125 0,0.5653 -0.46048,1 -1,1 -0.53952,0 -1.24864,1.125 -1.59375,2.5 -0.3451,1.375 -1.00418,2.5 -1.46875,2.5 -0.90271,0 -3.3567,4.8841 -4.5,9 -0.38195,1.375 -1.41321,3.4 -2.3125,4.5 -2.45812,3.0067 -3.79539,5.72615 -4.5625,9.21875 -0.38029,1.7314 -1.3666,3.68845 -2.15625,4.34375 -0.78965,0.6554 -1.4266,1.9174 -1.4375,2.8125 -0.0178,1.4556 -1.5089,3.9597 -10.4375,17.3125 -1.34857,2.0168 -2.74717,4.77535 -3.09375,6.15625 -0.34659,1.3809 -1.25588,2.765 -2.03125,3.0625 -0.77536,0.2976 -1.40625,1.136 -1.40625,1.875 0,0.7389 -0.9,3.2233 -2,5.5 -1.1,2.2768 -2,4.8359 -2,5.6875 0,0.8515 -0.42298,1.53125 -0.90625,1.53125 -0.48327,0 -1.44253,1.43325 -2.15625,3.15625 -0.71372,1.7231 -2.38502,4.4149 -3.71875,6 -1.33374,1.585 -2.21992,3.48275 -1.9375,4.21875 0.28243,0.736 -0.2108,2.03915 -1.125,2.90625 -2.29444,2.1764 -3.70679,3.99395 -5.03125,6.46875 -0.6208,1.1599 -1.6839,2.7071 -2.375,3.4375 -0.6911,0.7304 -2.35352,3.3375 -3.6875,5.8125 -1.33398,2.475 -2.71676,4.725 -3.0625,5 -0.34574,0.275 -1.64919,2.525 -2.90625,5 -1.25706,2.475 -3.27224,5.625 -4.46875,7 -1.19651,1.375 -3.0329,4.075 -4.09375,6 -1.06086,1.925 -5.23165,8.04395 -9.25,13.59375 -4.01835,5.5498 -7.28125,10.8373 -7.28125,11.75 0,0.9127 -0.57848,1.65625 -1.28125,1.65625 -1.45173,0 -4.48111,3.2461 -6.71875,7.1875 -1.4774,2.6023 -6.78902,8.92915 -16.125,19.21875 -2.54258,2.8023 -5.84993,6.55625 -7.34375,8.34375 -1.49381,1.7875 -3.2364,3.27125 -3.875,3.28125 -0.63861,0.005 -3.11147,1.56995 -5.5,3.46875 -2.38853,1.8988 -5.20231,3.69875 -6.25,4.03125 -1.04768,0.3325 -2.20029,1.6813 -2.53125,3 -0.33096,1.3186 -1.40539,2.6823 -2.40625,3 -1.99324,0.6326 -2.92772,4.95565 -2.65625,12.40625 0.14263,3.9144 0.56954,4.6018 3.625,6.3125 2.11995,1.187 4.71265,1.8004 6.75,1.5625 3.05597,-0.3567 3.3125,-0.1783 3.3125,2.4375 0,2.0016 0.65938,3.07945 2.25,3.71875 3.73166,1.4999 6.64913,1.14425 7.96875,-0.96875 0.68696,-1.1 1.6948,-1.9996 2.25,-2 0.5552,-4e-4 2.67443,-1.4629 4.6875,-3.25 6.28989,-5.5838 8.80363,-7.39355 12.875,-9.34375 2.35727,-1.1292 3.9305,-2.61065 3.9375,-3.65625 0.008,-1.197 0.82133,-1.75 2.53125,-1.75 1.375,0 2.5,-0.4133 2.5,-0.9375 0,-0.5242 1.6875,-1.7279 3.75,-2.6875 2.0625,-0.9597 3.96298,-2.0919 4.25,-2.5 0.59061,-0.8397 7.84573,-5.875 8.46875,-5.875 0.223,0 2.51149,-1.4625 5.0625,-3.25 2.55102,-1.7875 5.50711,-3.7568 6.59375,-4.375 1.08663,-0.6182 3.21008,-2.2425 4.6875,-3.625 1.47743,-1.3825 3.73998,-2.82785 5.03125,-3.21875 1.82465,-0.5524 2.23478,-1.2429 1.875,-3.125 -0.43189,-2.2593 -0.2552,-2.3939 2.84375,-1.8125 4.12069,0.773 9.23038,-1.33015 9.625,-3.96875 0.19457,-1.3011 1.6276,-2.32665 4.3125,-3.09375 3.8039,-1.0869 3.95931,-1.3011 3.75,-4.8125 -0.12105,-2.0308 0.0317,-3.71875 0.3125,-3.71875 0.28083,0 1.81822,0.98215 3.40625,2.15625 3.0528,2.257 6.03125,1.9374 6.03125,-0.625 0,-0.9678 0.91574,-1.53125 2.5,-1.53125 1.4274,0 3.44967,-1.0764 4.6875,-2.5 1.33512,-1.5356 3.21437,-2.5 4.90625,-2.5 4.27216,0 8.17418,-1.79325 7.53125,-3.46875 -0.40131,-1.0458 0.48312,-1.6401 3.15625,-2.125 4.30881,-0.7816 11.21875,-4.0527 11.21875,-5.3125 0,-0.4764 1.97463,-1.16665 4.40625,-1.53125 2.80337,-0.4204 5.63921,-1.72355 7.75,-3.59375 2.51949,-2.2324 3.95944,-2.82825 5.96875,-2.40625 1.46014,0.3066 2.97838,0.0912 3.34375,-0.5 0.36536,-0.5907 1.04346,-0.83275 1.53125,-0.53125 0.48779,0.3014 2.37579,-0.0574 4.1875,-0.8125 1.81171,-0.755 5.7875,-1.70285 8.8125,-2.09375 6.30427,-0.8147 12.96052,-2.56785 14.65625,-3.84375 0.63874,-0.4806 3.24352,-0.9737 5.8125,-1.125 2.56897,-0.1514 5.05152,-0.8993 5.5,-1.625 0.48664,-0.7876 1.72805,-1.06775 3.0625,-0.71875 2.512,0.6569 12.8944,-1.02255 14.5,-2.34375 0.5739,-0.4722 4.1739,-1.153 8,-1.5 3.8261,-0.347 7.64375,-0.8757 8.46875,-1.1875 0.825,-0.312 2.46245,-0.45915 3.65625,-0.34375 1.1938,0.1155 4.1991,-0.7413 6.6875,-1.875 5.536,-2.5219 9.11235,-2.6257 10.8437,-0.3125 3.0717,4.1034 9.6038,8.0813 15.3438,9.3125 3.2753,0.7026 6.8688,2.0405 7.9688,3 1.1,0.9594 3.6169,2.2067 5.625,2.75 3.0309,0.8202 4.3897,0.62205 7.9687,-1.15625 2.371,-1.1781 5.0483,-2.83125 5.9375,-3.65625 0.8893,-0.825 2.6994,-2.43345 4.0312,-3.59375 2.4892,-2.1685 6.2793,-6.33385 11.1563,-12.28125 1.5278,-1.8632 2.7813,-4.4264 2.7813,-5.6875 0,-1.6165 0.6638,-2.36845 2.25,-2.59375 1.4782,-0.2099 2.5929,-1.3804 3.25,-3.375 0.55,-1.6697 2.2374,-4.34415 3.75,-5.96875 1.5124,-1.6247 2.75,-3.3436 2.75,-3.8125 0,-0.4689 0.8999,-2.00775 2,-3.40625 1.0999,-1.3984 2,-3.5935 2,-4.875 0,-1.3065 0.8785,-2.80605 2,-3.40625 1.0999,-0.5887 2,-1.77375 2,-2.65625 0,-0.8825 0.7038,-2.13055 1.5937,-2.78125 1.9179,-1.4024 4.4621,-8.23815 3.75,-10.09375 -0.442,-1.1519 2.0322,-6.13775 3.7187,-7.46875 1.6839,-1.329 3.9376,-7.2687 3.9376,-10.4375 0,-1.9736 0.4963,-3.5625 1.125,-3.5625 0.726,0 0.9144,-1.2066 0.5624,-3.375 -0.466,-2.8728 -0.1811,-3.53195 1.875,-4.46875 1.7183,-0.7829 2.4376,-1.91665 2.4376,-3.90625 0,-1.5394 0.7118,-3.83455 1.5937,-5.09375 1.1891,-1.6976 1.4305,-3.43135 0.9375,-6.71875 -0.5591,-3.7288 -0.3943,-4.4375 1,-4.4375 1.3653,0 1.5978,-0.8481 1.3125,-4.875 -0.33,-4.6576 -0.2007,-4.9387 2.6563,-5.9375 5.51492,-1.928 10.22582,-2.40235 12.43742,-1.21875 1.9921,1.0662 2.1037,1.73855 1.6563,8.84375 -0.283,4.4926 -1.7396,11.7929 -3.5313,17.5625 -1.6864,5.4301 -3.0624,10.6876 -3.0624,11.6875 0,0.9999 -0.4501,2.0975 -1,2.4375 -0.55,0.3399 -1.0313,1.3824 -1.0313,2.3125 0,0.93 -0.67832,2.9871 -1.50002,4.5625 -0.8216,1.5753 -1.4687,3.7641 -1.4687,4.875 0,1.1108 -0.4253,3.66745 -0.9376,5.65625 -3.738,14.5124 -4.6177,25.0527 -2.8124,34.3125 1.1057,5.6717 1.1452,5.7042 6.0624,7.3125 3.32792,1.0885 5.28812,1.27435 5.96882,0.59375 1.1435,-1.1435 8.7188,2.25105 8.7188,3.90625 -10e-5,1.7473 5.0194,1.06015 5.7187,-0.78125 0.3655,-0.9625 1.9265,-2.85875 3.4687,-4.21875 1.5423,-1.36 2.8126,-2.935 2.8126,-3.5 0,-0.565 1.3534,-1.78185 3,-2.71875 1.7427,-0.9917 3,-2.5355 3,-3.6875 0,-1.0886 0.8713,-2.25535 1.9374,-2.59375 1.0662,-0.3384 3.2217,-2.0513 4.8126,-3.8125 1.5909,-1.7612 3.7571,-3.71765 4.8124,-4.34375 1.0555,-0.6261 1.8573,-1.8636 1.7813,-2.75 -0.076,-0.8864 0.4861,-1.625 1.25,-1.625 2.7755,0 9.4063,-8.9298 9.4063,-12.6875 0,-0.7087 0.4701,-1.3125 1.0624,-1.3125 1.6074,0 6.0112,-4.7987 10.0938,-11 1.9915,-3.025 5.2362,-7.1522 7.2188,-9.1875 1.9825,-2.0352 3.625,-4.18565 3.625,-4.78125 0,-1.3807 6.5652,-8.03125 7.9374,-8.03125 0.5683,0 1.0626,-0.675 1.0626,-1.5 0,-1.6649 7.4228,-9.5 9,-9.5 1.3321,0 1.2651,1.7227 -0.094,2.5625 -0.5946,0.3675 -0.8005,1.7407 -0.4688,3.0625 0.3317,1.3219 -0.3726,6.12565 -1.5624,10.65625 -1.1898,4.5307 -2.5051,10.91875 -2.9063,14.21875 -0.4011,3.3 -1.1883,7.4112 -1.75,9.125 -0.5694,1.7373 -0.6552,3.71195 -0.1875,4.46875 0.5002,0.8094 0.3963,1.6438 -0.2812,2.0625 -1.7641,1.0903 -2.8242,10.74395 -3.25,29.84375 -0.3868,17.3469 0.5183,25.8024 3.0624,29 0.6566,0.825 1.912,2.9718 2.8126,4.75 2.0188,3.9858 6.2584,6.2769 12.25,6.625 3.0324,0.1762 4.904,0.84795 5.5312,1.96875 0.6348,1.1342 2.2007,1.65625 4.8438,1.65625 4.8264,0 6.4897,-2.1995 7.3124,-9.75 0.4919,-4.5131 0.2996,-5.4542 -1.375,-6.5 -1.1326,-0.7073 -1.9374,-2.32485 -1.9374,-3.84375 0,-1.442 -1.35,-4.33005 -3,-6.40625 -4.0969,-5.1552 -3.9795,-10.3827 0.9687,-39 1.0461,-6.05 2.4168,-14.375 3.0625,-18.5 0.6457,-4.125 1.5797,-9.075 2.0625,-11 0.4828,-1.925 0.875,-5.4125 0.875,-7.75 0,-2.3375 0.4813,-4.25 1.0313,-4.25 0.5499,0 1,-0.87 1,-1.9375 0,-1.0676 0.4773,-2.23215 1.0624,-2.59375 0.6101,-0.377 0.9755,-3.4987 0.875,-7.3125 -0.096,-3.6584 0.1564,-7.4457 0.5626,-8.4375 0.4061,-0.9917 0.1791,-4.3667 -0.5,-7.5 -0.6791,-3.1332 -1.5552,-7.6601 -1.9688,-10.0625 -0.582,-3.3804 -1.8715,-5.46295 -5.6562,-9.21875 -2.6899,-2.6693 -6.0622,-6.1856 -7.5,-7.8125 -4.632,-5.2406 -10.8792,-5.12345 -17.6876,0.34375 -3.7045,2.9748 -20.1205,19.49625 -22.375,22.53125 -1.4299,1.925 -6.24,7.325 -10.6874,12 -4.4474,4.675 -8.0768,8.99375 -8.0938,9.59375 -0.017,0.6 -1.9437,3.162 -4.2812,5.6875 -2.3376,2.5254 -5.1501,5.77175 -6.25,7.21875 -1.1,1.4469 -2.7875,3.4974 -3.75,4.5625 -0.9626,1.0651 -1.75,2.3653 -1.75,2.875 0,0.5097 -1.3345,1.5753 -2.9376,2.375 -2.6678,1.3309 -2.9402,1.31865 -3.375,-0.34375 -0.2612,-0.9989 0.1211,-2.06645 0.8438,-2.34375 0.8797,-0.3376 1.2675,-2.2579 1.1875,-5.8125 -0.081,-3.602 0.463,-6.17025 1.6875,-8.03125 2.4856,-3.7775 1.9906,-22.9409 -0.6875,-26.75 -0.9561,-1.3599 -1.7187,-3.39795 -1.7187,-4.53125 -10e-5,-3.6313 -10.0667,-15.0803 -16.6876,-19 -5.0646,-2.9983 -12.4761,-3.28575 -26.87502,-0.96875 l -9.5312,1.5625 -2.5625,-3.0625 c -3.5786,-4.2529 -4.8443,-4.78095 -14.9063,-6.03125 -7.7065,-0.9577 -9.4003,-0.86665 -12.9062,0.59375 -7.5832,3.1588 -10.5312,4.88355 -10.5312,6.15625 0,0.6999 -0.9203,1.25 -2.0313,1.25 -2.4553,0 -8.6015,3.83525 -11.9063,7.40625 -1.3333,1.4408 -2.8312,2.59375 -3.3437,2.59375 -0.5125,0 -1.8247,1.125 -2.9063,2.5 -1.0815,1.375 -2.8342,2.5 -3.875,2.5 -1.0406,0 -2.3404,0.8804 -2.9062,1.9375 -0.5657,1.0571 -1.8178,2.69285 -2.7812,3.65625 -1.1293,1.1291 -1.8223,3.52925 -1.9376,6.71875 -0.2154,5.9622 2.6997,9.6875 7.5626,9.6875 4.0268,0 4.7893,1.6823 2.2187,4.875 -1.1736,1.4576 -2.8928,4.0875 -3.8125,5.875 -0.9197,1.7875 -2.2457,3.25 -2.9688,3.25 -0.7231,0 -1.3124,0.6325 -1.3124,1.375 0,0.7425 -1.2656,3.105 -2.8126,5.25 -1.5467,2.145 -3.5015,5.225 -4.3437,6.875 -7.5545,14.8018 -10.3127,20.3243 -11.0313,22.25 -0.4616,1.2375 -1.2589,3.2625 -1.7812,4.5 -2.2464,5.3223 -4.03125,12.059 -4.03125,15.125 0,2.9388 -0.4154,3.46295 -3.75,4.53125 -2.0625,0.6607 -7.575,1.84195 -12.25,2.65625 -17.3334,3.0192 -21.86315,3.957 -22.59375,4.6875 -0.4117,0.4118 -2.81185,0.75 -5.34375,0.75 -2.5319,0 -7.87427,0.9 -11.84375,2 -3.96948,1.1 -8.687,2 -10.5,2 -1.813,0 -9.82479,1.746 -17.78125,3.875 -7.95646,2.129 -15.5625,4.10945 -16.9375,4.40625 -3.35805,0.7247 -16.73222,5.4189 -20.65625,7.25 -1.73312,0.8088 -3.81297,1.46875 -4.625,1.46875 -0.81204,0 -2.03406,0.675 -2.71875,1.5 -0.68469,0.825 -1.85561,1.5 -2.59375,1.5 -0.73814,0 -3.34964,1.125 -5.8125,2.5 -2.46286,1.375 -5.3877,2.5 -6.5,2.5 -1.1123,0 -2.47544,0.80115 -3,1.78125 -1.05403,1.9695 -8.88781,6.21875 -11.46875,6.21875 -0.90226,0 -1.625,0.45 -1.625,1 0,0.55 -0.67108,1 -1.46875,1 -0.79767,0 -1.81017,0.5942 -2.25,1.3125 -0.43983,0.7183 -2.76643,2.3211 -5.1875,3.5625 -3.50216,1.7958 -4.58748,1.9822 -5.25,0.9375 -1.30221,-2.0535 -0.9888,-3.8125 0.65625,-3.8125 0.825,0 1.5,-0.82065 1.5,-1.84375 0,-1.023 1.57886,-3.5548 3.53125,-5.625 1.95239,-2.0701 3.81426,-5.04005 4.125,-6.59375 0.31073,-1.5537 1.40062,-3.59285 2.4375,-4.53125 1.03687,-0.9384 1.90625,-2.423 1.90625,-3.3125 0,-0.8894 1.22115,-3.18095 2.75,-5.09375 1.52884,-1.9128 3.86507,-5.607 5.15625,-8.1875 1.29118,-2.5805 2.96377,-4.92905 3.71875,-5.21875 0.75497,-0.2897 1.375,-1.36395 1.375,-2.40625 0,-1.0422 1.16461,-3.0709 2.59375,-4.5 1.62881,-1.6289 2.655,-3.814 2.75,-5.875 0.0834,-1.8084 0.74242,-3.77275 1.46875,-4.34375 0.72633,-0.5711 1.17633,-1.67785 1,-2.46875 -0.19339,-0.8675 0.61661,-1.56665 2.03125,-1.78125 1.73272,-0.2629 2.20722,-0.8601 1.84375,-2.25 -0.27057,-1.0347 0.13803,-2.39365 0.90625,-3.03125 0.76823,-0.6376 1.40625,-2.17275 1.40625,-3.40625 0,-1.2335 0.9,-3.38285 2,-4.78125 1.1,-1.3984 2,-3.21965 2,-4.03125 0,-0.8116 0.88827,-1.7092 2,-2 1.11173,-0.2907 2.50168,-1.9266 3.09375,-3.625 0.59208,-1.6984 1.5038,-3.09375 2,-3.09375 0.49619,0 0.90625,-0.62705 0.90625,-1.40625 0,-0.7792 0.3375,-1.5667 0.75,-1.75 1.68263,-0.7478 4.25,-6.862 4.25,-10.125 0,-2.1786 0.5633,-3.703 1.5,-4.0625 0.825,-0.3165 1.5,-1.63265 1.5,-2.90625 0,-1.5127 1.04047,-2.9049 3,-4.0625 1.65,-0.9746 3,-2.57235 3,-3.53125 0,-0.9589 0.41751,-2.165 0.9375,-2.6875 0.52,-0.5225 1.0825,-3.10675 1.25,-5.71875 0.23984,-3.74 0.68438,-4.7494 2.0625,-4.75 0.99449,-5e-4 1.742,-0.7555 1.75,-1.75 0.008,-0.9625 0.29336,-2.7625 0.625,-4 0.51856,-1.935 0.18406,-2.24475 -2.28125,-2.34375 -2.64361,-0.1061 -2.57153,-0.1739 0.6875,-0.8125 1.94368,-0.3809 4.03515,-1.02235 4.65625,-1.40625 1.48281,-0.9164 6.3125,-10.6179 6.3125,-12.6875 0,-0.8869 0.66124,-2.46365 1.46875,-3.53125 0.8075,-1.0676 1.4825,-2.91515 1.5,-4.09375 0.0175,-1.1787 0.70625,-2.40215 1.53125,-2.71875 0.825,-0.3165 1.5,-1.5077 1.5,-2.625 0,-1.1172 0.45,-2.03125 1,-2.03125 0.55,0 1,-0.71445 1,-1.59375 0,-0.8794 1.38511,-2.9038 3.09375,-4.5 1.88453,-1.7604 2.88231,-3.49135 2.53125,-4.40625 -0.33912,-0.8837 0.2194,-2.0283 1.375,-2.75 1.08463,-0.6773 2,-2.20945 2,-3.40625 0,-1.1969 0.3375,-2.3167 0.75,-2.5 1.23619,-0.5494 6.25,-10.6771 6.25,-12.625 0,-0.994 0.51956,-2.33205 1.15625,-2.96875 0.87682,-0.8768 0.8067,-1.54565 -0.21875,-2.78125 -1.14666,-1.3818 -1.13117,-1.6132 0.0937,-1.4375 3.42477,0.491 4.18041,-0.007 3.5625,-2.46875 -0.46149,-1.8387 -0.12662,-2.72765 1.375,-3.53125 1.10496,-0.5914 2.03125,-1.86995 2.03125,-2.84375 0,-0.9738 1.12453,-3.32435 2.53125,-5.21875 1.54049,-2.0745 2.40607,-4.3456 2.15625,-5.6875 -0.28924,-1.5536 0.17715,-2.41395 1.53125,-2.84375 1.48703,-0.4719 1.78716,-1.20255 1.3125,-3.09375 -0.45037,-1.7944 0.0643,-3.27965 1.90625,-5.46875 1.3943,-1.657 2.5625,-3.5971 2.5625,-4.3125 0,-0.7155 0.68595,-1.89215 1.53125,-2.59375 0.8453,-0.7015 1.4256,-1.96545 1.3125,-2.84375 -0.2515,-1.9536 2.1547,-7.125 3.3125,-7.125 0.4617,0 0.84375,-1.095 0.84375,-2.4375 0,-1.3426 0.45,-2.7226 1,-3.0625 0.55,-0.34 1,-1.9018 1,-3.5 0,-1.8606 0.6849,-3.29835 1.9375,-3.96875 1.076,-0.5758 2.3968,-2.50025 2.9375,-4.28125 1.8973,-6.2492 3.7806,-10.81175 4.9375,-11.96875 0.6424,-0.6423 1.1875,-1.9078 1.1875,-2.8125 0,-0.9048 0.8923,-2.46625 2,-3.46875 1.1688,-1.0577 1.78335,-2.53995 1.46875,-3.53125 -0.3641,-1.1471 0.138,-1.8938 1.5,-2.25 2.4051,-0.6289 2.61705,-3.3762 0.46875,-5.75 -1.411,-1.5593 -1.3299,-1.66415 1,-1.21875 1.8085,0.3457 2.5625,0.0767 2.5625,-1 0,-0.8302 0.58825,-1.7726 1.34375,-2.0625 0.7556,-0.2899 1.67225,-2.0864 2.03125,-4 0.359,-1.9137 1.3145,-4.0149 2.125,-4.6875 0.8104,-0.6726 1.5,-2.06105 1.5,-3.09375 0,-1.0326 0.42925,-1.90625 0.96875,-1.90625 0.5396,0 1.24865,-1.125 1.59375,-2.5 0.3451,-1.375 0.95535,-2.5 1.34375,-2.5 1.0898,0 4.9753,-7.722 7.25,-14.4375 1.1266,-3.3263 2.1379,-8.79005 2.25,-12.15625 0.2199,-6.5991 -1.129,-9.1919 -6.75,-12.875 -1.4605,-0.9569 -2.65625,-2.34605 -2.65625,-3.09375 0,-1.7184 -5.14175,-4.4375 -8.40625,-4.4375 z m 91.0313,255 c 1.1378,0 0.3807,3.7319 -1.625,8 -0.3876,0.825 -1.5157,4.2 -2.5313,7.5 -1.0157,3.3 -2.4334,6.3726 -3.1563,6.8125 -0.723,0.4398 -1.3124,1.2246 -1.3124,1.75 0,0.5253 -1.125,3.30605 -2.5,6.15625 -1.375,2.8503 -2.5,5.97175 -2.5,6.96875 0,0.9971 -0.6687,1.8125 -1.4688,1.8125 -0.8669,0 -1.7078,1.41155 -2.0938,3.46875 -0.3835,2.0449 -1.6421,4.10065 -3.0624,5.03125 -1.3188,0.8641 -2.375,2.1841 -2.375,2.9375 0,0.7535 -0.644,1.61375 -1.4063,1.90625 -0.7622,0.2925 -2.6661,3.02745 -4.2187,6.09375 -2.8362,5.6013 -5.375,7.2878 -5.375,3.5625 0,-1.7334 -0.6667,-2 -5,-2 -4.5303,0 -5,-0.1952 -5,-2.25 0,-1.2473 1.082,-3.8638 2.4062,-5.8125 1.3242,-1.9487 3.1144,-5.1085 4,-7 0.8856,-1.8915 2.2639,-4.5625 3.0625,-5.9375 0.7986,-1.375 2.2381,-4.3 3.1875,-6.5 0.9495,-2.2 2.3142,-4.34145 3.0312,-4.78125 0.7173,-0.4399 1.3126,-1.6774 1.3126,-2.75 0,-1.0727 0.6749,-1.96875 1.5,-1.96875 0.8249,0 1.5,-0.3892 1.5,-0.875 0,-0.4859 0.8999,-1.11855 2,-1.40625 1.1966,-0.3129 2,-1.3724 2,-2.625 0,-1.1515 0.5833,-2.09375 1.3124,-2.09375 0.7291,0 2.3444,-1.07625 3.5938,-2.40625 1.7473,-1.8599 2.1228,-3.1088 1.625,-5.375 -0.6371,-2.9007 -0.5791,-2.93245 4.4062,-3.59375 3.448,-0.4574 5.4775,-1.31915 6.3126,-2.65625 0.6743,-1.08 1.73,-1.96875 2.375,-1.96875 z"
         id="path3240"
         style="fill:#000000" />
    </g>
  </g>
</svg>
